<svg id="visual" viewBox="0 0 900 100" width="900" height="100" xmlns="http://www.w3.org/2000/svg" xmlns:xlink="http://www.w3.org/1999/xlink" version="1.1"><rect x="0" y="0" width="900" height="100" fill="#FFFFFF"></rect><path d="M0 14L30 19.3C60 24.7 120 35.3 180 35.3C240 35.3 300 24.7 360 20.2C420 15.7 480 17.3 540 21.8C600 26.3 660 33.7 720 32.3C780 31 840 21 870 16L900 11L900 0L870 0C840 0 780 0 720 0C660 0 600 0 540 0C480 0 420 0 360 0C300 0 240 0 180 0C120 0 60 0 30 0L0 0Z" fill="#0066FF" stroke-linecap="round" stroke-linejoin="miter"></path></svg>