<svg id="visual" viewBox="0 0 960 100" width="960" height="100" xmlns="http://www.w3.org/2000/svg" xmlns:xlink="http://www.w3.org/1999/xlink" version="1.1"><rect x="0" y="0" width="960" height="100" fill="#FFFFFF"></rect><path d="M0 11L22.8 13.5C45.7 16 91.3 21 137 25.8C182.7 30.7 228.3 35.3 274 35.3C319.7 35.3 365.3 30.7 411.2 26.8C457 23 503 20 548.8 22.8C594.7 25.7 640.3 34.3 686 37.3C731.7 40.3 777.3 37.7 823 32.5C868.7 27.3 914.3 19.7 937.2 15.8L960 12L960 0L937.2 0C914.3 0 868.7 0 823 0C777.3 0 731.7 0 686 0C640.3 0 594.7 0 548.8 0C503 0 457 0 411.2 0C365.3 0 319.7 0 274 0C228.3 0 182.7 0 137 0C91.3 0 45.7 0 22.8 0L0 0Z" fill="#3B9797" stroke-linecap="round" stroke-linejoin="miter"></path></svg>