<svg id="visual" viewBox="0 0 900 100" width="900" height="100" xmlns="http://www.w3.org/2000/svg" xmlns:xlink="http://www.w3.org/1999/xlink" version="1.1"><rect x="0" y="0" width="900" height="100" fill="#FFFFFF"></rect><path d="M0 46L25 50.7C50 55.3 100 64.7 150 70.2C200 75.7 250 77.3 300 71.2C350 65 400 51 450 38.7C500 26.3 550 15.7 600 22.8C650 30 700 55 750 66.3C800 77.7 850 75.3 875 74.2L900 73L900 0L875 0C850 0 800 0 750 0C700 0 650 0 600 0C550 0 500 0 450 0C400 0 350 0 300 0C250 0 200 0 150 0C100 0 50 0 25 0L0 0Z" fill="#0066FF" stroke-linecap="round" stroke-linejoin="miter"></path></svg>